<svg width="60" height="61" viewBox="0 0 60 61" fill="none" xmlns="http://www.w3.org/2000/svg">
<g clip-path="url(#clip0_55_213)">
<path d="M60 30.6602C60 14.0916 46.5685 0.660156 30 0.660156C13.4315 0.660156 0 14.0916 0 30.6602C0 47.2287 13.4315 60.6602 30 60.6602C46.5685 60.6602 60 47.2287 60 30.6602Z" fill="#4ACA67" fill-opacity="0.12"/>
<path d="M35.1041 24.0978C35.1041 26.9168 32.8189 29.202 29.9999 29.202C27.181 29.202 24.8958 26.9168 24.8958 24.0978C24.8958 21.2789 27.181 18.9937 29.9999 18.9937C32.8189 18.9937 35.1041 21.2789 35.1041 24.0978Z" fill="#4ACA67"/>
<path d="M38.75 37.2228C38.75 40.0418 34.8325 42.327 30 42.327C25.1675 42.327 21.25 40.0418 21.25 37.2228C21.25 34.4039 25.1675 32.1187 30 32.1187C34.8325 32.1187 38.75 34.4039 38.75 37.2228Z" fill="#4ACA67"/>
<path d="M22.8864 20.4517C23.1452 20.4517 23.3979 20.4771 23.6418 20.5254C23.0475 21.5811 22.7084 22.7997 22.7084 24.0975C22.7084 25.3637 23.0312 26.5545 23.5989 27.5922C23.3682 27.6352 23.13 27.6577 22.8864 27.6577C20.8237 27.6577 19.1516 26.0445 19.1516 24.0547C19.1516 22.0648 20.8237 20.4517 22.8864 20.4517Z" fill="#4ACA67"/>
<path d="M20.4441 40.8478C19.6159 39.8577 19.0626 38.6428 19.0626 37.2224C19.0626 35.8454 19.5826 34.6615 20.3689 33.6885C17.5913 33.9039 15.4167 35.4231 15.4167 37.2652C15.4167 39.1247 17.6295 40.6551 20.4441 40.8478Z" fill="#4ACA67"/>
<path d="M37.2916 24.0975C37.2916 25.3637 36.9688 26.5545 36.4011 27.5922C36.6317 27.6352 36.8699 27.6577 37.1136 27.6577C39.1763 27.6577 40.8484 26.0445 40.8484 24.0547C40.8484 22.0648 39.1763 20.4517 37.1136 20.4517C36.8548 20.4517 36.6021 20.4771 36.3582 20.5254C36.9525 21.5811 37.2916 22.7997 37.2916 24.0975Z" fill="#4ACA67"/>
<path d="M39.5559 40.8478C42.3705 40.6551 44.5832 39.1247 44.5832 37.2652C44.5832 35.4231 42.4087 33.9039 39.6311 33.6885C40.4174 34.6615 40.9374 35.8454 40.9374 37.2224C40.9374 38.6428 40.3841 39.8577 39.5559 40.8478Z" fill="#4ACA67"/>
</g>
<defs>
<clipPath id="clip0_55_213">
<rect width="60" height="61" fill="white"/>
</clipPath>
</defs>
</svg>
