<svg width="60" height="61" viewBox="0 0 60 61" fill="none" xmlns="http://www.w3.org/2000/svg">
<g clip-path="url(#clip0_55_245)">
<path d="M60 30.6602C60 14.0916 46.5685 0.660156 30 0.660156C13.4315 0.660156 0 14.0916 0 30.6602C0 47.2287 13.4315 60.6602 30 60.6602C46.5685 60.6602 60 47.2287 60 30.6602Z" fill="#FB6238" fill-opacity="0.12"/>
<path fill-rule="evenodd" clip-rule="evenodd" d="M33.1081 20.6808V24.9041C33.1079 25.0577 33.1075 25.2767 33.1369 25.4647C33.1728 25.6946 33.291 26.1383 33.7505 26.4081C34.193 26.6679 34.6259 26.5714 34.8316 26.5075C35.0109 26.4517 35.2076 26.358 35.3542 26.2882L36.9065 25.5508L38.4587 26.2882C38.6053 26.358 38.802 26.4517 38.9813 26.5075C39.1871 26.5714 39.6199 26.6679 40.0624 26.4081C40.5219 26.1383 40.6401 25.6946 40.676 25.4647C40.7054 25.2767 40.7051 25.0577 40.7048 24.9041V18.6805C40.8606 18.6731 41.0136 18.6669 41.1631 18.6617C42.6435 18.6102 43.8123 19.8261 43.8123 21.3074V36.7913C43.8123 38.3258 42.5608 39.5674 41.0293 39.6632C39.6904 39.747 38.1171 39.9107 36.9062 40.2303C35.4125 40.6244 33.6287 41.4776 32.2482 42.2135C31.8628 42.419 31.4546 42.5678 31.0363 42.66V21.6398C31.4793 21.5313 31.9095 21.3602 32.3121 21.1272C32.5666 20.9799 32.8335 20.8297 33.1081 20.6808ZM40.6739 32.1981C40.8126 32.7532 40.4752 33.3156 39.9201 33.4544L34.3953 34.8356C33.8402 34.9743 33.2778 34.6369 33.139 34.0818C33.0003 33.5268 33.3377 32.9644 33.8928 32.8256L39.4176 31.4444C39.9727 31.3056 40.5351 31.6431 40.6739 32.1981Z" fill="#FB6238"/>
<path fill-rule="evenodd" clip-rule="evenodd" d="M28.9645 21.6953C28.5028 21.6076 28.0517 21.452 27.6276 21.2277C26.2655 20.5075 24.5432 19.693 23.0941 19.3106C21.8696 18.9875 20.2747 18.8236 18.9261 18.7408C17.4122 18.6477 16.188 19.8799 16.188 21.3967V36.7914C16.188 38.3259 17.4394 39.5675 18.9709 39.6633C20.3099 39.7471 21.8831 39.9108 23.0941 40.2304C24.5878 40.6245 26.3716 41.4777 27.7521 42.2136C28.1377 42.4191 28.546 42.568 28.9645 42.6603V21.6953ZM19.3269 26.6734C19.4657 26.1183 20.0281 25.7809 20.5831 25.9196L26.108 27.3008C26.663 27.4396 27.0005 28.002 26.8617 28.5571C26.723 29.1121 26.1605 29.4496 25.6055 29.3108L20.0806 27.9296C19.5256 27.7908 19.1881 27.2284 19.3269 26.6734ZM20.5831 31.4445C20.0281 31.3057 19.4657 31.6432 19.3269 32.1982C19.1881 32.7533 19.5256 33.3157 20.0806 33.4545L25.6055 34.8357C26.1605 34.9744 26.723 34.637 26.8617 34.0819C27.0005 33.5269 26.663 32.9645 26.108 32.8257L20.5831 31.4445Z" fill="#FB6238"/>
<path d="M38.633 18.8457C37.7766 18.9469 36.9347 19.0951 36.2156 19.3104C35.882 19.4103 35.5338 19.5369 35.1799 19.6819V19.9493V24.0772L36.2149 23.5855L36.2271 23.5794C36.2948 23.5448 36.58 23.399 36.9065 23.399C36.9721 23.399 37.0361 23.4049 37.097 23.4146C37.3389 23.4531 37.5318 23.5518 37.5858 23.5794L37.598 23.5855L38.633 24.0772V19.5303V18.8457Z" fill="#FB6238"/>
</g>
<defs>
<clipPath id="clip0_55_245">
<rect width="60" height="61" fill="white"/>
</clipPath>
</defs>
</svg>
