<svg width="60" height="61" viewBox="0 0 60 61" fill="none" xmlns="http://www.w3.org/2000/svg">
<g clip-path="url(#clip0_55_234)">
<path d="M60 30.6602C60 14.0916 46.5685 0.660156 30 0.660156C13.4315 0.660156 0 14.0916 0 30.6602C0 47.2287 13.4315 60.6602 30 60.6602C46.5685 60.6602 60 47.2287 60 30.6602Z" fill="#316AFF" fill-opacity="0.12"/>
<path fill-rule="evenodd" clip-rule="evenodd" d="M40.4842 39.8628H42.654V40.5333H40.4842V39.8628ZM40.4842 38.5177H43.616V39.1882H40.4842V38.5177ZM40.4842 37.1767H43.616V37.8472H40.4842V37.1767ZM39.1265 34.9194V43.6652H44.9571V34.9194H39.1265ZM32.4298 34.9194V43.6652H38.2603V34.9194H32.4298ZM31.0887 33.5993H46.3147V45.0063H40.4842C40.4831 45.1845 40.4115 45.355 40.2851 45.4806C40.1587 45.6063 39.9878 45.6768 39.8096 45.6768H37.5731C37.3982 45.6725 37.2318 45.5999 37.1097 45.4746C36.9875 45.3493 36.9192 45.1813 36.9192 45.0063H31.0887V33.5993ZM31.5052 28.6017C33.3685 28.6084 35.2208 28.8891 37.0025 29.4346C39.2188 30.0195 41.3082 31.0077 43.1662 32.3499H29.8393V41.9286H19.1319C19.8398 41.5655 20.4065 40.9771 20.7429 40.2562C21.0792 39.5353 21.166 38.7229 20.9894 37.9472C20.8161 37.2943 20.4592 36.7047 19.9609 36.2485C19.4626 35.7923 18.844 35.4885 18.1783 35.3733V35.2651C18.189 34.7499 18.3142 34.2435 18.5447 33.7825C18.7752 33.3215 19.1052 32.9176 19.511 32.5999C21.4818 31.1846 23.6787 30.1143 26.0079 29.4346C27.7952 28.9139 29.6439 28.6338 31.5052 28.6017ZM12.6538 24.5265C12.7587 24.4917 12.8732 24.5001 12.972 24.5497C13.0708 24.5993 13.1458 24.6862 13.1806 24.7911L16.9538 36.1772C17.306 36.0966 17.6708 36.0873 18.0266 36.1499C18.3825 36.2124 18.7222 36.3456 19.0258 36.5414C19.3294 36.7373 19.5907 36.992 19.7943 37.2904C19.998 37.5888 20.1398 37.925 20.2115 38.2791C20.2833 38.6332 20.2834 38.9981 20.2119 39.3522C20.1404 39.7064 19.9988 40.0426 19.7953 40.3412C19.5918 40.6398 19.3307 40.8946 19.0272 41.0907C18.7238 41.2867 18.3841 41.4201 18.0283 41.4828C16.4666 41.8703 15.6045 42.0869 14.9465 39.4632C14.3759 37.1642 14.9631 36.7103 16.1625 36.373L12.3893 25.0533C12.3721 25.0013 12.3653 24.9465 12.3693 24.8919C12.3732 24.8373 12.3879 24.784 12.4125 24.7351C12.437 24.6862 12.471 24.6426 12.5124 24.6068C12.5538 24.571 12.6019 24.5437 12.6538 24.5265ZM31.5052 13.6089C32.8231 13.6089 34.1114 13.9997 35.2072 14.7319C36.303 15.4641 37.1571 16.5048 37.6614 17.7224C38.1658 18.9399 38.2977 20.2797 38.0406 21.5723C37.7835 22.8649 37.1489 24.0522 36.217 24.9841C35.2851 25.916 34.0977 26.5507 32.8052 26.8078C31.5126 27.0649 30.1728 26.9329 28.9552 26.4286C27.7376 25.9242 26.6969 25.0702 25.9647 23.9744C25.2325 22.8786 24.8417 21.5903 24.8417 20.2723C24.8417 18.5051 25.5438 16.8102 26.7934 15.5606C28.043 14.3109 29.7379 13.6089 31.5052 13.6089Z" fill="#316AFF"/>
</g>
<defs>
<clipPath id="clip0_55_234">
<rect width="60" height="61" fill="white"/>
</clipPath>
</defs>
</svg>
