<svg width="140" height="139" viewBox="0 0 140 139" fill="none" xmlns="http://www.w3.org/2000/svg">
<path d="M0 139C9.12687 139 18.1644 137.202 26.5965 133.71C35.0286 130.217 42.6903 125.098 49.1439 118.644C55.5976 112.19 60.7169 104.529 64.2096 96.0965C67.7023 87.6644 69.5 78.6269 69.5 69.5C69.5 60.3731 67.7023 51.3356 64.2096 42.9035C60.7169 34.4714 55.5976 26.8097 49.1439 20.3561C42.6903 13.9024 35.0286 8.78307 26.5965 5.29037C18.1644 1.79767 9.12687 -3.98948e-07 0 0V139Z" fill="#06A7F0"/>
<path d="M70 139C79.1269 139 88.1644 137.202 96.5965 133.71C105.029 130.217 112.69 125.098 119.144 118.644C125.598 112.19 130.717 104.529 134.21 96.0965C137.702 87.6644 139.5 78.6269 139.5 69.5C139.5 60.3731 137.702 51.3356 134.21 42.9035C130.717 34.4714 125.598 26.8097 119.144 20.3561C112.69 13.9024 105.029 8.78307 96.5965 5.29037C88.1644 1.79767 79.1269 -3.98948e-07 70 0V139Z" fill="#F25425"/>
</svg>
